<svg width="80" height="67" viewBox="0 0 80 67" fill="none" xmlns="http://www.w3.org/2000/svg">
<g clip-path="url(#clip0_159_14)">
<mask id="mask0_159_14" style="mask-type:luminance" maskUnits="userSpaceOnUse" x="0" y="0" width="80" height="67">
<path d="M79.998 0H0V66.441H79.998V0Z" fill="white"/>
</mask>
<g mask="url(#mask0_159_14)">
<path d="M75.4984 26.9483L75.6234 26.9753H22.0984L38.9224 10.1103C39.7398 9.28293 40.1982 8.16677 40.1982 7.00375C40.1982 5.84073 39.7398 4.72458 38.9224 3.89725L36.3034 1.27725C35.4825 0.45928 34.3708 0 33.2119 0C32.053 0 30.9414 0.45928 30.1204 1.27725L1.27343 30.1183C0.457552 30.9438 0 32.0576 0 33.2183C0 34.3789 0.457552 35.4928 1.27343 36.3183L30.1204 65.1653C30.9419 65.9823 32.0534 66.4409 33.2119 66.4409C34.3705 66.4409 35.482 65.9823 36.3034 65.1653L38.9224 62.5453C39.3293 62.1402 39.6516 61.6584 39.8706 61.1278C40.0897 60.5972 40.2011 60.0283 40.1984 59.4543C40.2004 58.8893 40.0885 58.3298 39.8692 57.8092C39.65 57.2886 39.328 56.8175 38.9224 56.4243L21.9044 39.4673H75.5614C76.7391 39.4421 77.8608 38.9596 78.6889 38.1219C79.5171 37.2843 79.9867 36.1571 79.9984 34.9793V31.2733C79.9667 30.1058 79.477 28.9977 78.6349 28.1884C77.7929 27.3791 76.6662 26.9336 75.4984 26.9483Z" fill="#ffffff"/>
</g>
</g>
<defs>
<clipPath id="clip0_159_14">
<rect width="80" height="67" fill="white"/>
</clipPath>
</defs>
</svg>
